<svg viewBox="0 0 64 64" fill="none" xmlns="http://www.w3.org/2000/svg"><path d="M36.044 11.76c0 .4.22.93.461 1.507l.028.068c6.838 4.89 9.967 19.781 9.967 21.817C46.5 47.159 37.25 51 32 51s-14.5-3.841-14.5-15.848c0-2.575 2.542-14.482 8.052-20.238 1.59 3.97 4.926 12.162 5.454 12.42.948.462 1.84-.051 2.333-.925.279-.495-4.066-9.808-5.694-13.261.373-.245.756-.46 1.151-.643.096-.277.16-.53.16-.745 0-.47-.471-1.041-.951-1.623C26.74 8.604 25.416 7 32.5 7s5.76 1.604 4.495 3.137c-.48.582-.951 1.153-.951 1.623Z" fill="#F6F6F6"/><path d="M25.003 17.5c-5.671 9.732-7.5 16.5-5.5 22.5.657-6.052 6.708-12.8 8-17l-2.5-5.5Z" fill="#fff"/><path d="M29.5 49h8.29c13.992-8.348 4.664-24 4.664-24S44.01 40.13 29.5 49Z" fill="#000" fill-opacity=".1"/><path fill-rule="evenodd" clip-rule="evenodd" d="M28.796 12.505a9.107 9.107 0 0 0-1.151.643c1.628 3.453 5.973 12.766 5.694 13.26-.492.875-1.385 1.388-2.333.926-.467-.228-3.122-6.645-4.833-10.875l-.621-1.544c-.382.398-.75.827-1.103 1.28-4.747 6.08-6.949 16.56-6.949 18.957C17.5 47.159 26.75 51 32 51s14.5-3.841 14.5-15.848c0-2.036-3.13-16.926-9.967-21.817l-.028-.068c-.24-.576-.461-1.106-.461-1.507 0-.47.472-1.041.952-1.623C38.26 8.604 39.584 7 32.5 7c-7.084 0-5.76 1.604-4.495 3.137.48.582.951 1.153.951 1.623 0 .215-.064.468-.16.745Zm.029-3.738c.093.119.204.255.337.415l.024.03c.222.27.507.615.733.962.211.327.537.896.537 1.586 0 .474-.133.92-.243 1.237l-.208.6-.403.188c.838 1.79 1.98 4.255 2.976 6.493a102.89 102.89 0 0 1 1.613 3.785c.201.509.371.97.483 1.333.055.177.11.374.142.56.016.092.035.226.036.377 0 .103-.002.45-.206.813-.367.65-.931 1.257-1.692 1.596a3.03 3.03 0 0 1-2.606-.06 1.706 1.706 0 0 1-.49-.366 2.371 2.371 0 0 1-.202-.247 4.957 4.957 0 0 1-.277-.442c-.17-.303-.368-.697-.579-1.14a97.49 97.49 0 0 1-1.502-3.383 343.812 343.812 0 0 1-2.19-5.281c-1.785 2.522-3.198 5.762-4.224 8.873C19.578 30.66 19 34.102 19 35.152c0 5.569 2.123 9.103 4.739 11.272C26.41 48.639 29.687 49.5 32 49.5c2.313 0 5.59-.861 8.261-3.076C42.877 44.255 45 40.72 45 35.152c0-.32-.157-1.482-.558-3.247a54.477 54.477 0 0 0-1.774-6.087c-1.626-4.557-3.993-9.107-7.008-11.263l-.347-.25-.193-.46-.01-.026c-.113-.27-.246-.59-.348-.896-.101-.302-.218-.718-.218-1.163 0-.69.326-1.26.537-1.586.226-.347.51-.692.733-.961l.025-.03c.132-.16.243-.297.336-.416a5.522 5.522 0 0 0-.107-.023C35.362 8.6 34.233 8.5 32.5 8.5s-2.862.1-3.568.244a5.522 5.522 0 0 0-.107.023Zm7.698-.524v.002-.002Z" fill="#282828"/><path d="M14.433 51.427c1.797-3.87 4.403-3.41 17.567-3.41 13.164 0 15.77-.46 17.567 3.41.355.764.451 1.71.43 2.605a13.548 13.548 0 0 1-.43 2.968H14.433s-.394-1.405-.43-2.968c-.021-.895.075-1.84.43-2.605Z" fill="#F6F6F6"/><path d="M48.58 53.377c.02-.846-.13-1.377-.475-2.1-1.42-1.5-2.845-2-15.595-2-12.749 0-14.933-.537-16.615 2-.344.723-.494 1.254-.474 2.1 3.155-2.064 5.564-2.28 17.053-2.28 12.843 0 13.144-.033 16.105 2.28Z" fill="#fff"/><path fill-rule="evenodd" clip-rule="evenodd" d="M48.498 53.997c.018-.8-.078-1.478-.292-1.939-.386-.83-.745-1.278-1.162-1.575-.431-.308-1.074-.561-2.215-.728-1.876-.275-4.608-.264-8.963-.247-1.167.004-2.451.009-3.866.009s-2.699-.005-3.866-.01c-4.355-.016-7.087-.026-8.963.248-1.141.167-1.784.42-2.215.727-.417.298-.776.745-1.162 1.576-.214.461-.31 1.14-.292 1.939.013.536.075 1.06.147 1.503H48.35c.072-.442.134-.967.147-1.503ZM14.433 57s-.394-1.405-.43-2.968c-.021-.895.075-1.84.43-2.605 1.61-3.468 3.87-3.459 13.791-3.42 1.152.005 2.407.01 3.776.01 1.37 0 2.624-.005 3.776-.01 9.921-.039 12.18-.048 13.79 3.42.355.764.452 1.71.431 2.605a13.548 13.548 0 0 1-.43 2.968H14.433Z" fill="#282828"/></svg>
